<?xml version="1.0" encoding="UTF-8" standalone="no"?>
<!-- Created with Inkscape (http://www.inkscape.org/) -->

<svg
   width="1.9900634mm"
   height="2.6856201mm"
   viewBox="0 0 1.9900634 2.68562"
   version="1.1"
   id="svg13643"
   xmlns="http://www.w3.org/2000/svg"
   xmlns:svg="http://www.w3.org/2000/svg">
  <defs
     id="defs13640" />
  <g
     id="layer1"
     transform="translate(-58.319057,-120.46)">
    <path
       id="path6694"
       style="font-size:140px;line-height:1.25;font-family:'StarTrek Pi BT';-inkscape-font-specification:'StarTrek Pi BT';fill-opacity:0.999071;stroke-width:0.0700042"
       d="m 60.205233,123.14563 c -0.02894,-0.10369 -0.08837,-0.21463 -0.1788,-0.33279 -0.08923,-0.11697 -0.21704,-0.25201 -0.38344,-0.40515 v -0.81446 c -0.233447,-0.0499 -0.478866,-0.068 -0.718301,-0.25146 l -0.0016,0.94293 c 0,0.0784 0.0028,0.15159 0.0088,0.21911 0.0072,0.0675 0.01775,0.13178 0.03101,0.19327 l -0.0832,0.0181 c -0.03135,-0.13505 -0.08923,-0.26441 -0.173633,-0.38861 -0.0832,-0.12299 -0.196543,-0.24477 -0.340032,-0.36535 0.0048,-0.14711 0.0084,-0.27492 0.01085,-0.38344 0.0036,-0.10731 0.0052,-0.20222 0.0052,-0.28422 0,-0.10852 -0.0052,-0.22824 -0.01601,-0.35967 -0.0097,-0.13143 -0.02532,-0.27733 -0.04702,-0.43769 l 0.0739,-0.0362 c 0.207697,0.16282 0.290374,0.22353 0.523999,0.34572 0.244747,0.12027 0.405439,0.17469 0.687297,0.24081 0.235135,0.0507 0.45502,0.0748 0.704866,0.0951 v 0 c -0.07612,0.31517 -0.103814,0.63762 -0.103814,1.033 0,0.20499 0.0069,0.38258 0.02016,0.53331 0.01325,0.15072 0.03376,0.28181 0.06149,0.39274 z" />
  </g>
</svg>
